<?xml version="1.0" standalone="no"?>
<!DOCTYPE svg PUBLIC "-//W3C//DTD SVG 20010904//EN"
 "http://www.w3.org/TR/2001/REC-SVG-20010904/DTD/svg10.dtd">
<svg version="1.0" xmlns="http://www.w3.org/2000/svg"
 width="720.000000pt" height="720.000000pt" viewBox="0 0 720.000000 720.000000"
 preserveAspectRatio="xMidYMid meet">

<g transform="translate(0.000000,720.000000) scale(0.100000,-0.100000)"
fill="#000000" stroke="none">
<path d="M0 3600 l0 -3600 375 0 375 0 0 3229 c0 1776 3 3236 6 3245 6 14 75
16 685 16 l679 0 0 25 c0 18 5 25 20 25 15 0 20 -7 20 -25 l0 -25 505 0 505 0
0 190 0 190 425 0 425 0 0 -190 0 -190 485 0 485 0 0 25 c0 18 5 25 20 25 15
0 20 -7 20 -25 l0 -25 705 0 705 0 0 -3245 0 -3245 380 0 380 0 0 3600 0 3600
-3600 0 -3600 0 0 -3600z"/>
<path d="M3210 6665 l0 -165 385 0 385 0 0 165 0 165 -385 0 -385 0 0 -165z"/>
<path d="M790 6370 c0 -44 3 -80 7 -80 4 0 25 9 47 20 43 21 80 66 91 113 l7
27 -76 0 -76 0 0 -80z"/>
<path d="M972 6405 c-16 -61 -72 -121 -133 -142 l-49 -18 0 -2702 0 -2703 388
0 c213 0 654 3 980 7 l592 6 0 49 c0 111 66 298 147 417 102 147 278 275 463
333 66 20 95 23 240 23 145 0 174 -3 240 -23 155 -49 270 -122 385 -244 126
-133 208 -311 224 -481 l6 -72 148 0 c81 0 518 1 972 3 l825 2 0 2693 0 2693
-43 11 c-70 19 -147 109 -147 173 0 19 -6 20 -184 20 l-183 0 -7 -52 c-3 -29
-6 -78 -6 -108 -1 -70 -29 -200 -70 -315 -207 -582 -834 -1045 -1605 -1186
-135 -24 -357 -49 -446 -49 -47 0 -70 -4 -79 -15 -7 -8 -21 -15 -31 -15 -9 0
-24 7 -33 15 -9 9 -33 15 -64 15 -28 0 -96 5 -153 10 -495 49 -932 210 -1289
473 -124 91 -318 288 -400 405 -163 232 -260 509 -260 743 l0 79 -208 0 -208
0 -12 -45z m2678 -2775 c0 -18 -7 -20 -55 -20 -48 0 -55 2 -55 20 0 18 7 20
55 20 48 0 55 -2 55 -20z"/>
<path d="M1440 6384 c0 -288 132 -604 358 -861 365 -413 915 -669 1565 -729
164 -16 179 -16 195 0 24 21 56 21 77 -1 16 -15 31 -15 176 -4 262 20 477 63
712 141 380 127 682 322 923 598 216 246 328 511 349 825 l6 97 -385 0 c-379
0 -386 0 -386 -20 0 -13 -7 -20 -20 -20 -13 0 -20 7 -20 20 0 20 -7 20 -1415
20 -1408 0 -1415 0 -1415 -20 0 -13 -7 -20 -20 -20 -13 0 -20 7 -20 20 0 20
-7 20 -340 20 l-340 0 0 -66z"/>
<path d="M6250 6433 c0 -34 46 -98 85 -120 62 -35 65 -33 65 57 l0 80 -75 0
c-65 0 -75 -2 -75 -17z"/>
<path d="M3424 1626 c-246 -56 -451 -222 -560 -451 -43 -91 -74 -210 -74 -285
l0 -40 381 0 c325 0 383 2 395 15 20 19 48 19 64 0 11 -13 67 -15 396 -15
l384 0 0 33 c0 63 -21 161 -51 239 -86 221 -286 410 -514 484 -67 22 -103 27
-220 30 -96 3 -159 -1 -201 -10z"/>
<path d="M4878 813 l-428 -3 0 -54 c0 -65 -30 -186 -67 -269 -96 -217 -280
-387 -506 -467 -51 -18 -31 -19 1236 -19 l1287 -1 0 410 0 410 -547 -2 c-302
-2 -740 -4 -975 -5z"/>
<path d="M1648 803 l-858 -3 0 -400 0 -400 1293 1 c1271 0 1291 1 1240 19
-321 114 -556 417 -575 740 l-3 45 -120 0 c-66 0 -506 -1 -977 -2z"/>
<path d="M2790 770 c0 -135 83 -339 188 -466 156 -186 369 -284 617 -284 261
0 452 88 626 287 99 113 172 282 185 426 l7 77 -382 0 c-327 0 -385 -2 -397
-15 -9 -8 -26 -15 -38 -15 -13 0 -29 7 -36 15 -11 13 -67 15 -391 15 l-379 0
0 -40z"/>
</g>
</svg>
